<svg xmlns="http://www.w3.org/2000/svg" xmlns:xlink="http://www.w3.org/1999/xlink" contentStyleType="text/css" data-diagram-type="SEQUENCE" height="598px" preserveAspectRatio="none" style="width:490px;height:598px;background:#FFFFFF;" version="1.1" viewBox="0 0 490 598" width="490px" zoomAndPan="magnify"><defs/><g><rect fill="none" height="88.3984" style="stroke:#000000;stroke-width:1.5;" width="452.2456" x="10" y="373.4922"/><g><title>Client</title><rect fill="#000000" fill-opacity="0.00000" height="526.8594" width="8" x="43.2651" y="36.2969"/><line style="stroke:#181818;stroke-width:0.5;stroke-dasharray:5,5;" x1="47" x2="47" y1="36.2969" y2="563.1563"/></g><g><title>Server</title><rect fill="#000000" fill-opacity="0.00000" height="526.8594" width="8" x="418.2905" y="36.2969"/><line style="stroke:#181818;stroke-width:0.5;stroke-dasharray:5,5;" x1="421.3354" x2="421.3354" y1="36.2969" y2="563.1563"/></g><g class="participant participant-head" data-participant="Client"><rect fill="#E2E2F0" height="30.2969" rx="2.5" ry="2.5" style="stroke:#181818;stroke-width:0.5;" width="54.5303" x="20" y="5"/><text fill="#000000" font-family="sans-serif" font-size="14" lengthAdjust="spacing" textLength="40.5303" x="27" y="24.9951">Client</text></g><g class="participant participant-tail" data-participant="Client"><rect fill="#E2E2F0" height="30.2969" rx="2.5" ry="2.5" style="stroke:#181818;stroke-width:0.5;" width="54.5303" x="20" y="562.1563"/><text fill="#000000" font-family="sans-serif" font-size="14" lengthAdjust="spacing" textLength="40.5303" x="27" y="582.1514">Client</text></g><g class="participant participant-head" data-participant="Server"><rect fill="#E2E2F0" height="30.2969" rx="2.5" ry="2.5" style="stroke:#181818;stroke-width:0.5;" width="59.9102" x="392.3354" y="5"/><text fill="#000000" font-family="sans-serif" font-size="14" lengthAdjust="spacing" textLength="45.9102" x="399.3354" y="24.9951">Server</text></g><g class="participant participant-tail" data-participant="Server"><rect fill="#E2E2F0" height="30.2969" rx="2.5" ry="2.5" style="stroke:#181818;stroke-width:0.5;" width="59.9102" x="392.3354" y="562.1563"/><text fill="#000000" font-family="sans-serif" font-size="14" lengthAdjust="spacing" textLength="45.9102" x="399.3354" y="582.1514">Server</text></g><g class="message" data-participant-1="Client" data-participant-2="Server"><polygon fill="#181818" points="410.2905,63.4297,420.2905,67.4297,410.2905,71.4297,414.2905,67.4297" style="stroke:#181818;stroke-width:1;"/><line style="stroke:#181818;stroke-width:1;" x1="47.2651" x2="416.2905" y1="67.4297" y2="67.4297"/><text fill="#000000" font-family="sans-serif" font-size="13" lengthAdjust="spacing" textLength="52.6411" x="54.2651" y="62.3638">socket()</text></g><g class="message" data-participant-1="Client" data-participant-2="Server"><polygon fill="#181818" points="410.2905,92.5625,420.2905,96.5625,410.2905,100.5625,414.2905,96.5625" style="stroke:#181818;stroke-width:1;"/><line style="stroke:#181818;stroke-width:1;" x1="47.2651" x2="416.2905" y1="96.5625" y2="96.5625"/><text fill="#000000" font-family="sans-serif" font-size="13" lengthAdjust="spacing" textLength="61.9658" x="54.2651" y="91.4966">connect()</text></g><g class="message" data-participant-1="Server" data-participant-2="Server"><line style="stroke:#181818;stroke-width:1;" x1="422.2905" x2="464.2905" y1="125.6953" y2="125.6953"/><line style="stroke:#181818;stroke-width:1;" x1="464.2905" x2="464.2905" y1="125.6953" y2="138.6953"/><line style="stroke:#181818;stroke-width:1;" x1="423.2905" x2="464.2905" y1="138.6953" y2="138.6953"/><polygon fill="#181818" points="433.2905,134.6953,423.2905,138.6953,433.2905,142.6953,429.2905,138.6953" style="stroke:#181818;stroke-width:1;"/><text fill="#000000" font-family="sans-serif" font-size="13" lengthAdjust="spacing" textLength="52.6411" x="429.2905" y="120.6294">socket()</text></g><g class="message" data-participant-1="Server" data-participant-2="Server"><line style="stroke:#181818;stroke-width:1;" x1="422.2905" x2="464.2905" y1="167.8281" y2="167.8281"/><line style="stroke:#181818;stroke-width:1;" x1="464.2905" x2="464.2905" y1="167.8281" y2="180.8281"/><line style="stroke:#181818;stroke-width:1;" x1="423.2905" x2="464.2905" y1="180.8281" y2="180.8281"/><polygon fill="#181818" points="433.2905,176.8281,423.2905,180.8281,433.2905,184.8281,429.2905,180.8281" style="stroke:#181818;stroke-width:1;"/><text fill="#000000" font-family="sans-serif" font-size="13" lengthAdjust="spacing" textLength="38.4985" x="429.2905" y="162.7622">bind()</text></g><g class="message" data-participant-1="Server" data-participant-2="Server"><line style="stroke:#181818;stroke-width:1;" x1="422.2905" x2="464.2905" y1="209.9609" y2="209.9609"/><line style="stroke:#181818;stroke-width:1;" x1="464.2905" x2="464.2905" y1="209.9609" y2="222.9609"/><line style="stroke:#181818;stroke-width:1;" x1="423.2905" x2="464.2905" y1="222.9609" y2="222.9609"/><polygon fill="#181818" points="433.2905,218.9609,423.2905,222.9609,433.2905,226.9609,429.2905,222.9609" style="stroke:#181818;stroke-width:1;"/><text fill="#000000" font-family="sans-serif" font-size="13" lengthAdjust="spacing" textLength="45.4746" x="429.2905" y="204.895">listen()</text></g><g class="message" data-participant-1="Server" data-participant-2="Server"><line style="stroke:#181818;stroke-width:1;" x1="422.2905" x2="464.2905" y1="252.0938" y2="252.0938"/><line style="stroke:#181818;stroke-width:1;" x1="464.2905" x2="464.2905" y1="252.0938" y2="265.0938"/><line style="stroke:#181818;stroke-width:1;" x1="423.2905" x2="464.2905" y1="265.0938" y2="265.0938"/><polygon fill="#181818" points="433.2905,261.0938,423.2905,265.0938,433.2905,269.0938,429.2905,265.0938" style="stroke:#181818;stroke-width:1;"/><text fill="#000000" font-family="sans-serif" font-size="13" lengthAdjust="spacing" textLength="53.752" x="429.2905" y="247.0278">accept()</text></g><path d="M21,278.0938 L21,303.0938 L448,303.0938 L448,288.0938 L438,278.0938 L21,278.0938" fill="#FEFFDD" style="stroke:#181818;stroke-width:0.5;"/><path d="M438,278.0938 L438,288.0938 L448,288.0938 L438,278.0938" fill="#FEFFDD" style="stroke:#181818;stroke-width:0.5;"/><text fill="#000000" font-family="sans-serif" font-size="13" lengthAdjust="spacing" textLength="152.2612" x="153.9922" y="295.1606">Connection established</text><g class="message" data-participant-1="Client" data-participant-2="Server"><polygon fill="#181818" points="410.2905,325.3594,420.2905,329.3594,410.2905,333.3594,414.2905,329.3594" style="stroke:#181818;stroke-width:1;"/><line style="stroke:#181818;stroke-width:1;" x1="47.2651" x2="416.2905" y1="329.3594" y2="329.3594"/><text fill="#000000" font-family="sans-serif" font-size="13" lengthAdjust="spacing" textLength="98.0713" x="54.2651" y="324.2935">send(filename)</text></g><g class="message" data-participant-1="Server" data-participant-2="Client"><polygon fill="#181818" points="58.2651,354.4922,48.2651,358.4922,58.2651,362.4922,54.2651,358.4922" style="stroke:#181818;stroke-width:1;"/><line style="stroke:#181818;stroke-width:1;" x1="52.2651" x2="421.2905" y1="358.4922" y2="358.4922"/><text fill="#000000" font-family="sans-serif" font-size="13" lengthAdjust="spacing" textLength="351.0254" x="64.2651" y="353.4263">if file exists: send(filesize) else: send("File not found")</text></g><path d="M10,373.4922 L74.4429,373.4922 L74.4429,380.625 L64.4429,390.625 L10,390.625 L10,373.4922" fill="#EEEEEE" style="stroke:#000000;stroke-width:1.5;"/><rect fill="none" height="88.3984" style="stroke:#000000;stroke-width:1.5;" width="452.2456" x="10" y="373.4922"/><text fill="#000000" font-family="sans-serif" font-size="13" font-weight="bold" lengthAdjust="spacing" textLength="19.4429" x="25" y="386.5591">alt</text><text fill="#000000" font-family="sans-serif" font-size="11" font-weight="bold" lengthAdjust="spacing" textLength="73.0791" x="89.4429" y="385.7026">[File exists]</text><g class="message" data-participant-1="Server" data-participant-2="Client"><polygon fill="#181818" points="58.2651,407.7578,48.2651,411.7578,58.2651,415.7578,54.2651,411.7578" style="stroke:#181818;stroke-width:1;"/><line style="stroke:#181818;stroke-width:1;" x1="52.2651" x2="421.2905" y1="411.7578" y2="411.7578"/><text fill="#000000" font-family="sans-serif" font-size="13" lengthAdjust="spacing" textLength="111.5029" x="64.2651" y="406.6919">send(file chunks)</text></g><g class="message" data-participant-1="Client" data-participant-2="Client"><line style="stroke:#181818;stroke-width:1;" x1="47.2651" x2="89.2651" y1="440.8906" y2="440.8906"/><line style="stroke:#181818;stroke-width:1;" x1="89.2651" x2="89.2651" y1="440.8906" y2="453.8906"/><line style="stroke:#181818;stroke-width:1;" x1="48.2651" x2="89.2651" y1="453.8906" y2="453.8906"/><polygon fill="#181818" points="58.2651,449.8906,48.2651,453.8906,58.2651,457.8906,54.2651,453.8906" style="stroke:#181818;stroke-width:1;"/><text fill="#000000" font-family="sans-serif" font-size="13" lengthAdjust="spacing" textLength="177.3916" x="54.2651" y="435.8247">receive and write to output</text></g><g class="message" data-participant-1="Client" data-participant-2="Client"><line style="stroke:#181818;stroke-width:1;" x1="47.2651" x2="89.2651" y1="490.0234" y2="490.0234"/><line style="stroke:#181818;stroke-width:1;" x1="89.2651" x2="89.2651" y1="490.0234" y2="503.0234"/><line style="stroke:#181818;stroke-width:1;" x1="48.2651" x2="89.2651" y1="503.0234" y2="503.0234"/><polygon fill="#181818" points="58.2651,499.0234,48.2651,503.0234,58.2651,507.0234,54.2651,503.0234" style="stroke:#181818;stroke-width:1;"/><text fill="#000000" font-family="sans-serif" font-size="13" lengthAdjust="spacing" textLength="43.6274" x="54.2651" y="484.9575">close()</text></g><g class="message" data-participant-1="Server" data-participant-2="Server"><line style="stroke:#181818;stroke-width:1;" x1="422.2905" x2="464.2905" y1="532.1563" y2="532.1563"/><line style="stroke:#181818;stroke-width:1;" x1="464.2905" x2="464.2905" y1="532.1563" y2="545.1563"/><line style="stroke:#181818;stroke-width:1;" x1="423.2905" x2="464.2905" y1="545.1563" y2="545.1563"/><polygon fill="#181818" points="433.2905,541.1563,423.2905,545.1563,433.2905,549.1563,429.2905,545.1563" style="stroke:#181818;stroke-width:1;"/><text fill="#000000" font-family="sans-serif" font-size="13" lengthAdjust="spacing" textLength="43.6274" x="429.2905" y="527.0903">close()</text></g><!--SRC=[RP11RW8n34NtEON5gYF11LXqWyG5UeAG-ICiKYTAF53rz4sQWHc9PFdV__PteatAZgCLfPDdY9guaRwGxaZ6D4I7pqKvKWxk1lqOEiW54RZAcjADlQCBozW5dhD2kiWwXrZ76GaA2XMtGlkNvzJgS112LdifuwuOkpUXD9ZOG-mtjkkQzKWyKSM4dr8fRmAPVp4GVCOYxixLLqhH56OPTwMXzKhdDMselFSLhv7ahhFSyl3lMxi-VGaEV0TP6UcHk1olWSAiSLPJHcpFUqQS3ndTRrp87m00]--></g></svg>