<svg xmlns="http://www.w3.org/2000/svg" xmlns:xlink="http://www.w3.org/1999/xlink" contentStyleType="text/css" data-diagram-type="DESCRIPTION" height="393px" preserveAspectRatio="none" style="width:373px;height:393px;background:#FFFFFF;" version="1.1" viewBox="0 0 373 393" width="373px" zoomAndPan="magnify"><defs/><g><!--cluster Client--><g class="cluster" data-entity="Client" data-source-line="1" data-uid="ent0002" id="cluster_Client"><rect fill="none" height="126" rx="2.5" ry="2.5" style="stroke:#181818;stroke-width:1;" width="114" x="27.56" y="42.0986"/><rect fill="none" height="10" style="stroke:#181818;stroke-width:1;" width="15" x="121.56" y="47.0986"/><rect fill="none" height="2" style="stroke:#181818;stroke-width:1;" width="4" x="119.56" y="49.0986"/><rect fill="none" height="2" style="stroke:#181818;stroke-width:1;" width="4" x="119.56" y="53.0986"/><text fill="#000000" font-family="sans-serif" font-size="14" font-weight="bold" lengthAdjust="spacing" textLength="46.0264" x="61.5468" y="68.0938">Client</text></g><!--cluster Server--><g class="cluster" data-entity="Server" data-source-line="5" data-uid="ent0004" id="cluster_Server"><rect fill="none" height="141.7" rx="2.5" ry="2.5" style="stroke:#181818;stroke-width:1;" width="116" x="196.56" y="134.5986"/><rect fill="none" height="10" style="stroke:#181818;stroke-width:1;" width="15" x="292.56" y="139.5986"/><rect fill="none" height="2" style="stroke:#181818;stroke-width:1;" width="4" x="290.56" y="141.5986"/><rect fill="none" height="2" style="stroke:#181818;stroke-width:1;" width="4" x="290.56" y="145.5986"/><text fill="#000000" font-family="sans-serif" font-size="14" font-weight="bold" lengthAdjust="spacing" textLength="52.0078" x="228.5561" y="160.5938">Server</text></g><g class="entity" data-entity="ClientPort" data-source-line="2" data-uid="ent0003" id="entity_ClientPort"><text fill="#000000" font-family="sans-serif" font-size="14" lengthAdjust="spacing" textLength="26.7695" x="110.1752" y="20.7969">TCP</text><rect fill="#F1F1F1" height="12" style="stroke:#181818;stroke-width:1.5;" width="12" x="117.56" y="36.0986"/></g><g class="entity" data-entity="ServerPort" data-source-line="6" data-uid="ent0005" id="entity_ServerPort"><text fill="#000000" font-family="sans-serif" font-size="14" lengthAdjust="spacing" textLength="26.7695" x="241.1752" y="113.2969">TCP</text><rect fill="#F1F1F1" height="12" style="stroke:#181818;stroke-width:1.5;" width="12" x="248.56" y="128.5986"/></g><g class="entity" data-entity="GMN8" data-source-line="13" data-uid="ent0009" id="entity_GMN8"><path d="M6,215.0986 L6,270.4971 L159.1201,270.4971 L159.1201,225.0986 L149.1201,215.0986 L6,215.0986" fill="#FEFFDD" style="stroke:#181818;stroke-width:0.5;"/><path d="M149.1201,215.0986 L149.1201,225.0986 L159.1201,225.0986 L149.1201,215.0986" fill="#FEFFDD" style="stroke:#181818;stroke-width:1;"/><text fill="#000000" font-family="sans-serif" font-size="13" lengthAdjust="spacing" textLength="132.1201" x="12" y="232.1655">Initiates connection,</text><text fill="#000000" font-family="sans-serif" font-size="13" lengthAdjust="spacing" textLength="102.9653" x="12" y="247.2983">sends filename,</text><text fill="#000000" font-family="sans-serif" font-size="13" lengthAdjust="spacing" textLength="82.6274" x="12" y="262.4312">receives file.</text></g><g class="entity" data-entity="GMN11" data-source-line="19" data-uid="ent0012" id="entity_GMN11"><path d="M166.86,331.4986 L166.86,386.8971 L342.2667,386.8971 L342.2667,341.4986 L332.2667,331.4986 L166.86,331.4986" fill="#FEFFDD" style="stroke:#181818;stroke-width:0.5;"/><path d="M332.2667,331.4986 L332.2667,341.4986 L342.2667,341.4986 L332.2667,331.4986" fill="#FEFFDD" style="stroke:#181818;stroke-width:1;"/><text fill="#000000" font-family="sans-serif" font-size="13" lengthAdjust="spacing" textLength="154.4067" x="172.86" y="348.5655">Listens for connections,</text><text fill="#000000" font-family="sans-serif" font-size="13" lengthAdjust="spacing" textLength="72.8965" x="172.86" y="363.6983">checks file,</text><text fill="#000000" font-family="sans-serif" font-size="13" lengthAdjust="spacing" textLength="96.0718" x="172.86" y="378.8312">sends content.</text></g><!--link ClientPort to ServerPort--><g class="link" data-entity-1="ClientPort" data-entity-2="ServerPort" data-source-line="9" data-uid="lnk6" id="link_ClientPort_ServerPort"><path d="M121.26,48.3086 C117.17,58.4486 110.01,81.0886 120.56,95.0986 C136.58,116.3686 218.0837,128.7178 242.3637,131.9878" fill="none" id="ClientPort-to-ServerPort" style="stroke:#181818;stroke-width:1;"/><polygon fill="#181818" points="248.31,132.7886,239.9244,127.6232,243.3547,132.1213,238.8566,135.5516,248.31,132.7886" style="stroke:#181818;stroke-width:1;"/><text fill="#000000" font-family="sans-serif" font-size="13" lengthAdjust="spacing" textLength="110.5" x="121.56" y="91.1655">filename request</text></g><!--link ServerPort to ClientPort--><g class="link" data-entity-1="ServerPort" data-entity-2="ClientPort" data-source-line="10" data-uid="lnk7" id="link_ServerPort_ClientPort"><path d="M254.39,128.1786 C253.74,117.1686 250.69,92.0486 236.56,78.0986 C205.72,47.6586 154.9481,43.7802 135.9481,43.3002" fill="none" id="ServerPort-to-ClientPort" style="stroke:#181818;stroke-width:1;"/><polygon fill="#181818" points="129.95,43.1486,138.8461,47.3747,134.9484,43.2749,139.0481,39.3772,129.95,43.1486" style="stroke:#181818;stroke-width:1;"/><text fill="#000000" font-family="sans-serif" font-size="13" lengthAdjust="spacing" textLength="118.0664" x="247.56" y="91.1655">file size + content</text></g><!--link Client to GMN8--><g class="link" data-entity-1="Client" data-entity-2="GMN8" data-source-line="13" data-uid="lnk10" id="link_Client_GMN8"><path d="M82.56,168.3782 C82.56,168.7616 82.56,169.1466 82.56,169.5332 C82.56,170.3065 82.56,171.0859 82.56,171.8709 C82.56,173.4408 82.56,175.0325 82.56,176.6399 C82.56,189.4986 82.56,203.3536 82.56,214.9686" fill="none" id="Client-GMN8" style="stroke:#181818;stroke-width:1;stroke-dasharray:7,7;"/></g><!--link Server to GMN11--><g class="link" data-entity-1="Server" data-entity-2="GMN11" data-source-line="19" data-uid="lnk13" id="link_Server_GMN11"><path d="M254.56,276.4559 C254.56,276.6658 254.56,276.8762 254.56,277.0872 C254.56,277.5091 254.56,277.9331 254.56,278.3592 C254.56,281.7676 254.56,285.3039 254.56,288.9074 C254.56,303.3211 254.56,318.8086 254.56,331.4786" fill="none" id="Server-GMN11" style="stroke:#181818;stroke-width:1;stroke-dasharray:7,7;"/></g><!--SRC=[ROuz3i8m34PtdyBgIii165Ww8J5KWWkKu8g8rYw9wG3YxYHA_oIOBFbzxxEDTBqmiMBPsZZUWDYBKypEPPLXxKTGXHry0CmidCWDvFu82Kp2ecDHx5SGTzZObhZk21qzdkGLLZI6LsuAexSlmWqQOGq4W4K9Bw8g7Kep2d1WgxPMyZ78PDGAv-29htw-cOCZGtQWjDf2e1ZhVahJKt2qFjmCQN6hMf-3kP6vfvRfoFZVKle5]--></g></svg>